<?xml version="1.0" encoding="UTF-8" standalone="no"?>
<!DOCTYPE svg PUBLIC "-//W3C//DTD SVG 1.1//EN" "http://www.w3.org/Graphics/SVG/1.1/DTD/svg11.dtd">
<svg xmlns="http://www.w3.org/2000/svg" version="1.1" viewBox="0.00 0.00 1080.00 1080.00">
<g stroke-width="2.00" fill="none" stroke-linecap="butt">
<path stroke="#8e8e8d" vector-effect="non-scaling-stroke" d="
  M 173.43 626.89
  A 0.36 0.36 0.0 0 1 173.07 627.25
  L 139.10 627.25
  A 0.36 0.36 0.0 0 0 138.74 627.61
  L 138.74 651.64
  A 0.36 0.36 0.0 0 0 139.10 652.00
  L 236.61 652.00
  A 0.36 0.36 0.0 0 0 236.97 651.64
  L 236.98 627.61
  A 0.36 0.36 0.0 0 0 236.62 627.25
  L 202.67 627.25
  A 0.36 0.36 0.0 0 1 202.31 626.89
  L 202.31 425.11
  A 0.36 0.36 0.0 0 0 201.95 424.75
  L 104.26 424.75
  A 0.36 0.36 0.0 0 0 103.90 425.11
  L 103.90 485.14
  A 0.36 0.36 0.0 0 0 104.26 485.50
  L 128.38 485.50
  A 0.36 0.36 0.0 0 0 128.74 485.14
  L 128.74 450.36
  A 0.36 0.36 0.0 0 1 129.10 450.00
  L 173.08 450.00
  A 0.36 0.36 0.0 0 1 173.44 450.36
  L 173.43 626.89"
/>
<path stroke="#8e8e8d" vector-effect="non-scaling-stroke" d="
  M 457.51 449.75
  A 0.37 0.37 0.0 0 1 457.88 450.12
  L 457.88 522.13
  A 0.37 0.37 0.0 0 1 457.51 522.50
  L 359.61 522.50
  A 0.37 0.37 0.0 0 0 359.24 522.87
  L 359.24 547.38
  A 0.37 0.37 0.0 0 0 359.61 547.75
  L 457.51 547.75
  A 0.37 0.37 0.0 0 1 457.88 548.12
  L 457.88 626.88
  A 0.37 0.37 0.0 0 1 457.51 627.25
  L 351.26 627.25
  A 0.37 0.37 0.0 0 0 350.89 627.62
  L 350.89 651.63
  A 0.37 0.37 0.0 0 0 351.26 652.00
  L 486.37 652.00
  A 0.37 0.37 0.0 0 0 486.74 651.63
  L 486.74 425.12
  A 0.37 0.37 0.0 0 0 486.37 424.75
  L 351.26 424.75
  A 0.37 0.37 0.0 0 0 350.89 425.12
  L 350.89 449.38
  A 0.37 0.37 0.0 0 0 351.26 449.75
  L 457.51 449.75"
/>
<path stroke="#8e8e8d" vector-effect="non-scaling-stroke" d="
  M 696.36 547.75
  A 0.35 0.35 0.0 0 1 696.71 548.10
  L 696.71 626.90
  A 0.35 0.35 0.0 0 1 696.36 627.25
  L 590.09 627.25
  A 0.35 0.35 0.0 0 0 589.74 627.60
  L 589.74 651.65
  A 0.35 0.35 0.0 0 0 590.09 652.00
  L 725.13 652.00
  A 0.35 0.35 0.0 0 0 725.48 651.65
  L 725.48 425.10
  A 0.35 0.35 0.0 0 0 725.13 424.75
  L 590.09 424.75
  A 0.35 0.35 0.0 0 0 589.74 425.10
  L 589.74 449.40
  A 0.35 0.35 0.0 0 0 590.09 449.75
  L 696.36 449.75
  A 0.35 0.35 0.0 0 1 696.71 450.10
  L 696.71 522.15
  A 0.35 0.35 0.0 0 1 696.36 522.50
  L 598.37 522.50
  A 0.35 0.35 0.0 0 0 598.02 522.85
  L 598.03 547.40
  A 0.35 0.35 0.0 0 0 598.38 547.75
  L 696.36 547.75"
/>
<path stroke="#8e8e8d" vector-effect="non-scaling-stroke" d="
  M 846.69 450.14
  A 0.39 0.39 0.0 0 1 847.08 449.75
  L 936.69 449.75
  A 0.39 0.39 0.0 0 1 937.08 450.14
  L 937.09 651.61
  A 0.39 0.39 0.0 0 0 937.48 652.00
  L 965.56 652.00
  A 0.39 0.39 0.0 0 0 965.95 651.61
  L 965.96 425.12
  A 0.39 0.39 0.0 0 0 965.57 424.73
  L 822.31 424.84
  A 0.39 0.39 0.0 0 0 821.92 425.23
  L 821.92 504.86
  A 0.39 0.39 0.0 0 0 822.31 505.25
  L 846.30 505.25
  A 0.39 0.39 0.0 0 0 846.69 504.86
  L 846.69 450.14"
/>
</g>
<path fill="#ffffff" d="
  M 0.00 0.00
  L 1080.00 0.00
  L 1080.00 1080.00
  L 0.00 1080.00
  L 0.00 0.00
  Z
  M 173.43 626.89
  A 0.36 0.36 0.0 0 1 173.07 627.25
  L 139.10 627.25
  A 0.36 0.36 0.0 0 0 138.74 627.61
  L 138.74 651.64
  A 0.36 0.36 0.0 0 0 139.10 652.00
  L 236.61 652.00
  A 0.36 0.36 0.0 0 0 236.97 651.64
  L 236.98 627.61
  A 0.36 0.36 0.0 0 0 236.62 627.25
  L 202.67 627.25
  A 0.36 0.36 0.0 0 1 202.31 626.89
  L 202.31 425.11
  A 0.36 0.36 0.0 0 0 201.95 424.75
  L 104.26 424.75
  A 0.36 0.36 0.0 0 0 103.90 425.11
  L 103.90 485.14
  A 0.36 0.36 0.0 0 0 104.26 485.50
  L 128.38 485.50
  A 0.36 0.36 0.0 0 0 128.74 485.14
  L 128.74 450.36
  A 0.36 0.36 0.0 0 1 129.10 450.00
  L 173.08 450.00
  A 0.36 0.36 0.0 0 1 173.44 450.36
  L 173.43 626.89
  Z
  M 457.51 449.75
  A 0.37 0.37 0.0 0 1 457.88 450.12
  L 457.88 522.13
  A 0.37 0.37 0.0 0 1 457.51 522.50
  L 359.61 522.50
  A 0.37 0.37 0.0 0 0 359.24 522.87
  L 359.24 547.38
  A 0.37 0.37 0.0 0 0 359.61 547.75
  L 457.51 547.75
  A 0.37 0.37 0.0 0 1 457.88 548.12
  L 457.88 626.88
  A 0.37 0.37 0.0 0 1 457.51 627.25
  L 351.26 627.25
  A 0.37 0.37 0.0 0 0 350.89 627.62
  L 350.89 651.63
  A 0.37 0.37 0.0 0 0 351.26 652.00
  L 486.37 652.00
  A 0.37 0.37 0.0 0 0 486.74 651.63
  L 486.74 425.12
  A 0.37 0.37 0.0 0 0 486.37 424.75
  L 351.26 424.75
  A 0.37 0.37 0.0 0 0 350.89 425.12
  L 350.89 449.38
  A 0.37 0.37 0.0 0 0 351.26 449.75
  L 457.51 449.75
  Z
  M 696.36 547.75
  A 0.35 0.35 0.0 0 1 696.71 548.10
  L 696.71 626.90
  A 0.35 0.35 0.0 0 1 696.36 627.25
  L 590.09 627.25
  A 0.35 0.35 0.0 0 0 589.74 627.60
  L 589.74 651.65
  A 0.35 0.35 0.0 0 0 590.09 652.00
  L 725.13 652.00
  A 0.35 0.35 0.0 0 0 725.48 651.65
  L 725.48 425.10
  A 0.35 0.35 0.0 0 0 725.13 424.75
  L 590.09 424.75
  A 0.35 0.35 0.0 0 0 589.74 425.10
  L 589.74 449.40
  A 0.35 0.35 0.0 0 0 590.09 449.75
  L 696.36 449.75
  A 0.35 0.35 0.0 0 1 696.71 450.10
  L 696.71 522.15
  A 0.35 0.35 0.0 0 1 696.36 522.50
  L 598.37 522.50
  A 0.35 0.35 0.0 0 0 598.02 522.85
  L 598.03 547.40
  A 0.35 0.35 0.0 0 0 598.38 547.75
  L 696.36 547.75
  Z
  M 846.69 450.14
  A 0.39 0.39 0.0 0 1 847.08 449.75
  L 936.69 449.75
  A 0.39 0.39 0.0 0 1 937.08 450.14
  L 937.09 651.61
  A 0.39 0.39 0.0 0 0 937.48 652.00
  L 965.56 652.00
  A 0.39 0.39 0.0 0 0 965.95 651.61
  L 965.96 425.12
  A 0.39 0.39 0.0 0 0 965.57 424.73
  L 822.31 424.84
  A 0.39 0.39 0.0 0 0 821.92 425.23
  L 821.92 504.86
  A 0.39 0.39 0.0 0 0 822.31 505.25
  L 846.30 505.25
  A 0.39 0.39 0.0 0 0 846.69 504.86
  L 846.69 450.14
  Z"
/>
<path fill="#1d1d1b" d="
  M 173.43 626.89
  L 173.44 450.36
  A 0.36 0.36 0.0 0 0 173.08 450.00
  L 129.10 450.00
  A 0.36 0.36 0.0 0 0 128.74 450.36
  L 128.74 485.14
  A 0.36 0.36 0.0 0 1 128.38 485.50
  L 104.26 485.50
  A 0.36 0.36 0.0 0 1 103.90 485.14
  L 103.90 425.11
  A 0.36 0.36 0.0 0 1 104.26 424.75
  L 201.95 424.75
  A 0.36 0.36 0.0 0 1 202.31 425.11
  L 202.31 626.89
  A 0.36 0.36 0.0 0 0 202.67 627.25
  L 236.62 627.25
  A 0.36 0.36 0.0 0 1 236.98 627.61
  L 236.97 651.64
  A 0.36 0.36 0.0 0 1 236.61 652.00
  L 139.10 652.00
  A 0.36 0.36 0.0 0 1 138.74 651.64
  L 138.74 627.61
  A 0.36 0.36 0.0 0 1 139.10 627.25
  L 173.07 627.25
  A 0.36 0.36 0.0 0 0 173.43 626.89
  Z"
/>
<path fill="#1d1d1b" d="
  M 457.51 449.75
  L 351.26 449.75
  A 0.37 0.37 0.0 0 1 350.89 449.38
  L 350.89 425.12
  A 0.37 0.37 0.0 0 1 351.26 424.75
  L 486.37 424.75
  A 0.37 0.37 0.0 0 1 486.74 425.12
  L 486.74 651.63
  A 0.37 0.37 0.0 0 1 486.37 652.00
  L 351.26 652.00
  A 0.37 0.37 0.0 0 1 350.89 651.63
  L 350.89 627.62
  A 0.37 0.37 0.0 0 1 351.26 627.25
  L 457.51 627.25
  A 0.37 0.37 0.0 0 0 457.88 626.88
  L 457.88 548.12
  A 0.37 0.37 0.0 0 0 457.51 547.75
  L 359.61 547.75
  A 0.37 0.37 0.0 0 1 359.24 547.38
  L 359.24 522.87
  A 0.37 0.37 0.0 0 1 359.61 522.50
  L 457.51 522.50
  A 0.37 0.37 0.0 0 0 457.88 522.13
  L 457.88 450.12
  A 0.37 0.37 0.0 0 0 457.51 449.75
  Z"
/>
<path fill="#1d1d1b" d="
  M 696.36 547.75
  L 598.38 547.75
  A 0.35 0.35 0.0 0 1 598.03 547.40
  L 598.02 522.85
  A 0.35 0.35 0.0 0 1 598.37 522.50
  L 696.36 522.50
  A 0.35 0.35 0.0 0 0 696.71 522.15
  L 696.71 450.10
  A 0.35 0.35 0.0 0 0 696.36 449.75
  L 590.09 449.75
  A 0.35 0.35 0.0 0 1 589.74 449.40
  L 589.74 425.10
  A 0.35 0.35 0.0 0 1 590.09 424.75
  L 725.13 424.75
  A 0.35 0.35 0.0 0 1 725.48 425.10
  L 725.48 651.65
  A 0.35 0.35 0.0 0 1 725.13 652.00
  L 590.09 652.00
  A 0.35 0.35 0.0 0 1 589.74 651.65
  L 589.74 627.60
  A 0.35 0.35 0.0 0 1 590.09 627.25
  L 696.36 627.25
  A 0.35 0.35 0.0 0 0 696.71 626.90
  L 696.71 548.10
  A 0.35 0.35 0.0 0 0 696.36 547.75
  Z"
/>
<path fill="#1d1d1b" d="
  M 846.69 450.14
  L 846.69 504.86
  A 0.39 0.39 0.0 0 1 846.30 505.25
  L 822.31 505.25
  A 0.39 0.39 0.0 0 1 821.92 504.86
  L 821.92 425.23
  A 0.39 0.39 0.0 0 1 822.31 424.84
  L 965.57 424.73
  A 0.39 0.39 0.0 0 1 965.96 425.12
  L 965.95 651.61
  A 0.39 0.39 0.0 0 1 965.56 652.00
  L 937.48 652.00
  A 0.39 0.39 0.0 0 1 937.09 651.61
  L 937.08 450.14
  A 0.39 0.39 0.0 0 0 936.69 449.75
  L 847.08 449.75
  A 0.39 0.39 0.0 0 0 846.69 450.14
  Z"
/>
</svg>
